# xmcd
#
# Track frame offsets:
#	151
#	40056
#	53628
#	73221
#	91521
#	128458
#	137341
#	155329
#	179239
#
# Disc length: 2933 seconds
#
# Revision: 0
# Processed by: cddbd v1.5.2PL0 Copyright (c) Steve Scherf et al.
# Submitted via: audiograbber 1.83.01
#
DISCID=6e0b7309
DTITLE=Marvin Gaye - Original Artist - Original Sound [CD 1-2)
DYEAR=2005
DGENRE=Soul
TTITLE0=Intro
TTITLE1=Third World Girl
TTITLE2=I Heard It Through The Grapevine
TTITLE3=Come Get To This
TTITLE4=Let's Get It On
TTITLE5=God Is My Friend
TTITLE6=What's Goin' On
TTITLE7=Inner City Blues (Make Me Wanna Holler)
TTITLE8=Rockin' After Midnight
EXTD=
EXTT0=
EXTT1=
EXTT2=
EXTT3=
EXTT4=
EXTT5=
EXTT6=
EXTT7=
EXTT8=
PLAYORDER=
